<!-- Generated by IcoMoon.io -->
<svg version="1.1" xmlns="http://www.w3.org/2000/svg" width="32" height="32" viewBox="0 0 32 32">
<path fill="#f00" d="M16.754 16.047l8.662-8.662c0.195-0.195 0.195-0.512 0-0.707s-0.512-0.195-0.707 0l-8.662 8.662-8.662-8.662c-0.195-0.195-0.512-0.195-0.707 0s-0.195 0.512 0 0.707l8.662 8.662-8.662 8.662c-0.195 0.195-0.195 0.512 0 0.707 0.098 0.098 0.226 0.146 0.354 0.146s0.256-0.049 0.354-0.146l8.662-8.662 8.662 8.662c0.098 0.098 0.226 0.146 0.354 0.146s0.256-0.049 0.354-0.146c0.195-0.195 0.195-0.512 0-0.707l-8.662-8.662z"></path>
</svg>
